<svg width="554" height="234" viewBox="0 0 554 234" fill="none" xmlns="http://www.w3.org/2000/svg">
<path 
fill-rule="evenodd" 
clip-rule="evenodd" 
d="M241.285 2.34C201.597 10.26 166.456 47.066 158.924 88.605L158.335 91.855H163.56H168.785V105.105C168.785 155.684 215.445 174.868 284.61 152.726C294.453 149.575 297.65 148.124 298.36 146.487C299.164 144.636 311.285 93.012 311.285 91.442C311.285 91.119 308.876 90.855 305.932 90.855H300.579L302.911 80.605C304.193 74.968 305.252 69.787 305.264 69.093C305.281 68.094 297.413 67.886 267.562 68.093L229.84 68.355L227.593 77.855C226.358 83.08 225.099 88.367 224.797 89.605C224.277 91.733 224.546 91.855 229.766 91.855C232.801 91.855 235.28 92.192 235.273 92.605C235.267 93.018 234.597 95.83 233.785 98.855C231.505 107.351 230.854 106.855 244.285 106.855C250.885 106.855 256.266 107.192 256.243 107.605C256.22 108.018 255.389 111.73 254.397 115.855L252.594 123.355L245.189 123.657C225.652 124.455 216.851 116.996 216.807 99.606L216.785 90.857L211.424 90.856L206.062 90.855L206.734 87.105C213.943 46.859 279.343 21.126 289.333 54.605L290.602 58.855H298.924C306.722 58.855 307.282 58.713 307.809 56.605C312.028 39.701 316.922 17.161 316.521 16.476C314.951 13.79 291.676 4.962 279.307 2.36C270.594 0.527001 250.423 0.515996 241.285 2.34ZM473.785 1.5C431.146 8.123 400.058 41.191 391.895 88.605L391.335 91.855H396.56H401.785L401.79 105.105C401.823 184.141 517.322 180.791 550.309 100.798C554.325 91.058 554.283 90.855 548.285 90.855C545.535 90.855 543.296 90.518 543.309 90.105C543.321 89.692 544.247 85.98 545.366 81.855C559.229 30.732 525.969 -6.606 473.785 1.5ZM341.9 4.605C341.037 7.514 322.283 88.297 322.284 89.105C322.285 89.518 324.535 89.855 327.285 89.855C330.035 89.855 332.285 90.022 332.285 90.226C332.285 90.43 328.91 105.383 324.785 123.455C320.66 141.526 317.285 156.442 317.285 156.6C317.285 156.759 329.052 156.768 343.434 156.622L369.583 156.355L377.232 123.355L384.88 90.355L379.733 89.855L374.586 89.355L384.416 46.855C389.823 23.48 394.255 4.017 394.266 3.605C394.313 1.773 342.447 2.763 341.9 4.605ZM486.103 41.885C494.551 47.036 496.471 65.165 490.7 85.287C488.776 91.994 488.609 91.718 494.789 92.055L500.293 92.355L496.123 100.709C480.889 131.228 456.084 129.926 456.034 98.605L456.022 90.855H450.608H445.194L445.829 87.105C451.115 55.892 471.512 32.99 486.103 41.885ZM15.507 67.306C0.856004 71.946 0.152 74.418 0.5 119.993L0.785004 157.355L4.015 162.006C6.109 165.022 8.922 167.483 12.015 169.006L16.785 171.355H64.285H111.785L116.993 168.469C119.932 166.84 123.419 163.826 124.993 161.554L127.785 157.525V118.94V80.355L124.863 76.047C123.257 73.677 119.882 70.527 117.363 69.047L112.785 66.355L66.285 66.153C29.487 65.993 18.892 66.233 15.507 67.306ZM110.739 79.4C114.012 80.953 115.957 83.642 116.495 87.355C116.782 89.333 116.215 89.355 64.285 89.355H11.785L12.136 86.88C12.583 83.726 14.646 80.78 17.526 79.18C21.223 77.127 106.372 77.328 110.739 79.4ZM117.098 126.784C116.642 163.111 121.825 159.949 63.285 159.611C6.186 159.282 11.915 162.877 11.473 127.105L11.16 101.855H64.286H117.412L117.098 126.784ZM33.6 115.862C28.744 117.819 28.555 122.165 33.112 127.098L35.646 129.842L33.591 132.098C27.739 138.523 29.007 144.855 36.146 144.855C38.811 144.855 50.285 132.728 50.285 129.911C50.285 128.31 48.196 125.433 43.952 121.188C37.318 114.555 37.11 114.448 33.6 115.862ZM57.508 134.412C54.868 136.26 54.524 140.951 56.856 143.284C59.338 145.766 80.341 145.556 82.63 143.026C88.241 136.826 83.226 132.855 69.785 132.855C62.303 132.855 59.161 133.253 57.508 134.412ZM159.766 196.605C160.521 199.218 163.039 208.687 165.36 217.649L169.581 233.943L175.654 233.649L181.728 233.355L185.66 220.855C188.943 210.42 189.723 208.768 190.381 210.855C190.814 212.23 192.612 217.987 194.375 223.649L197.58 233.943L203.607 233.649L209.634 233.355L214.943 213.355C217.863 202.355 220.259 193.018 220.269 192.605C220.278 192.192 218.117 191.855 215.468 191.855H210.651L208.939 199.105C207.997 203.093 206.174 210.18 204.888 214.855L202.55 223.355L200.337 215.855C199.12 211.73 197.008 204.643 195.644 200.105L193.164 191.855H189.322H185.48L183.308 199.105C182.113 203.093 179.975 210.18 178.555 214.855L175.974 223.355L171.959 207.605L167.945 191.855H163.169H158.393L159.766 196.605ZM225.285 212.855V233.855H237.785H250.285V230.355V226.855H242.785H235.285V221.855V216.855H242.345H249.406L249.095 213.105L248.785 209.355L242.035 209.059L235.285 208.764V204.309V199.855H242.785H250.285V195.855V191.855H237.785H225.285V212.855ZM258.285 212.767V233.855H269.835C282.622 233.855 286.66 232.629 288.328 228.242C290.465 222.62 288.485 215.103 284.272 212.848C282.293 211.789 282.294 211.761 284.423 208.883C291.049 199.919 284.365 192.482 269.265 192.017L258.285 191.678V212.767ZM310.285 212.855V233.855H321.325C340.802 233.855 349.344 224.62 345.454 207.769C342.576 195.301 337.275 191.855 320.969 191.855H310.285V212.855ZM352.285 212.855V233.855H365.285H378.285V230.355V226.855H370.285H362.285V221.855V216.855H369.345H376.406L376.095 213.105L375.785 209.355L369.035 209.059L362.285 208.764V204.309V199.855H370.285H378.285V195.855V191.855H365.285H352.285V212.855ZM381.297 192.605C381.304 193.018 384.626 202.355 388.679 213.355L396.049 233.355L401.417 233.638L406.785 233.921L414.431 213.138L422.077 192.355L417.528 192.044C411.994 191.666 412.521 190.887 406.671 208.105C401.277 223.983 401.175 224.067 398.229 215.105C397.009 211.393 394.68 204.643 393.053 200.105L390.096 191.855H385.69C383.267 191.855 381.291 192.192 381.297 192.605ZM274.584 199.778C280.482 202.021 277.982 208.855 271.262 208.855H267.285V203.855C267.285 198.404 268.777 197.571 274.584 199.778ZM331.14 201.28C342.462 207.135 336.044 226.855 322.817 226.855H319.285V213.355V199.855H323.835C326.337 199.855 329.624 200.496 331.14 201.28ZM278.752 217.827C283.183 221.505 279.309 226.855 272.214 226.855H267.285V221.228V215.601L272.252 216.078C274.984 216.34 277.909 217.128 278.752 217.827Z" 
fill="#313bac"/>
</svg>
